# xmcd
#
# Track frame offsets:
#   150
#   21453
#   37198
#   52375
#   70675
#   83009
#   97277
#   114918
#   131627
#   147463
#   163064
#   176228
#   195853
#   214808
#   231653
#   246932
#   262537
#   279315
#   298351
#   313016
#
# Disc length: 4439 seconds
#
# Revision: 0
# Processed by: cddbd v1.5.2PL0 Copyright (c) Steve Scherf et al.
# Submitted via: GXTranscoder 2.0.1939
#
DISCID=3c115514
DTITLE=narodna - narodna
DYEAR=1900
DGENRE=narodna
TTITLE0=lepi grome moj
TTITLE1=sampanjac
TTITLE2=luce moje
TTITLE3=ja sam tvoj i kada spavam sa njom
TTITLE4=oci boje badema
TTITLE5=flasa
TTITLE6=spomenik
TTITLE7=juzna pruga
TTITLE8=volim narodno
TTITLE9=lopov
TTITLE10=u godini jedan dan
TTITLE11=jedan kao ja
TTITLE12=steta bas
TTITLE13=a
TTITLE14=aa
TTITLE15=aaa
TTITLE16=b
TTITLE17=bb
TTITLE18=bbb
TTITLE19=c
EXTD=
EXTT0=
EXTT1=
EXTT2=
EXTT3=
EXTT4=
EXTT5=
EXTT6=
EXTT7=
EXTT8=
EXTT9=
EXTT10=
EXTT11=
EXTT12=
EXTT13=
EXTT14=
EXTT15=
EXTT16=
EXTT17=
EXTT18=
EXTT19=
PLAYORDER=
